<svg width="225" height="236" viewBox="0 0 225 236" fill="none" xmlns="http://www.w3.org/2000/svg">
<g clip-path="url(#clip0_128_767)">
<path d="M38.6724 24.7892H61.0911V63.1145H38.6724V24.7892Z" fill="#F2CB9B"/>
<path d="M35.5732 15.9244H64.1901V24.7892H35.5732V15.9244Z" fill="#D2B188"/>
<path d="M11.8027 201.452H199.197V214.05H11.8027V201.452Z" fill="#D3D3D3"/>
<path d="M29.9688 105.539H181.032V214.05H29.9688V105.539Z" fill="#F2F2F2"/>
<path d="M29.9688 100.407H181.032V105.539H29.9688V100.407Z" fill="#D3D3D3"/>
<path d="M99.8951 3.06037L14.3083 86.343C9.06625 91.4419 12.6269 100.407 19.913 100.407H191.087C198.373 100.407 201.966 91.4419 196.691 86.343L111.105 3.06037C109.603 1.5864 107.593 0.761902 105.5 0.761902C103.407 0.761902 101.396 1.5864 99.8951 3.06037Z" fill="#D9B4CF"/>
<path d="M103.983 214.05H46.7495V171.592C46.7495 155.628 59.5744 142.665 75.3664 142.665C91.1584 142.665 103.983 155.628 103.983 171.592V214.05Z" fill="#D3D3D3"/>
<path d="M141.963 135.466H164.25V157.995H141.963V135.466ZM141.963 161.627H164.25V184.156H141.963V161.627ZM116.05 135.466H138.337V157.995H116.05V135.466ZM116.05 161.627H138.337V184.156H116.05V161.627Z" fill="#ADD9D4"/>
<path d="M105.5 80.2109C96.1697 80.2109 88.5869 72.5459 88.5869 63.1145C88.5869 53.6831 96.1697 46.0181 105.5 46.0181C114.83 46.0181 122.413 53.6831 122.413 63.1145C122.413 72.5459 114.83 80.2109 105.5 80.2109Z" fill="#BA9AB1"/>
</g>
<path fill-rule="evenodd" clip-rule="evenodd" d="M184.849 183.626V235.754C184.849 235.754 156.6 223.535 144.764 218.43L144.729 218.37V166.273L144.764 166.34L184.814 183.665L184.849 183.626Z" fill="#F2CB9B"/>
<path fill-rule="evenodd" clip-rule="evenodd" d="M224.934 166.27L224.899 166.333L184.849 183.661V235.761L224.903 218.43L224.937 218.366V166.27H224.934Z" fill="#E6BC89"/>
<path fill-rule="evenodd" clip-rule="evenodd" d="M184.179 148.96L144.722 166.284V166.326L184.852 183.732L225 166.288L185.264 148.963H184.182L184.179 148.96Z" fill="#FFD4A0"/>
<path fill-rule="evenodd" clip-rule="evenodd" d="M197.231 154.185L196.986 154.277L157.125 171.7V196.169L164.2 192.641L171.181 203.226L171.174 177.801L211.043 160.194L197.231 154.185Z" fill="#E9EDED"/>
<defs>
<clipPath id="clip0_128_767">
<rect width="211" height="213.289" fill="white" transform="translate(0 0.760864)"/>
</clipPath>
</defs>
</svg>
