<svg width="221" height="236" viewBox="0 0 221 236" fill="none" xmlns="http://www.w3.org/2000/svg">
<path fill-rule="evenodd" clip-rule="evenodd" d="M110.466 94.6136V235.742C110.466 235.742 33.1578 202.661 0.765449 188.839L0.669922 188.677V47.6346L0.765449 47.8161L110.37 94.7187L110.466 94.6136Z" fill="#F2CB9B"/>
<path fill-rule="evenodd" clip-rule="evenodd" d="M220.167 47.6252L220.072 47.7972L110.467 94.7093V235.761L220.081 188.839L220.177 188.667V47.6252H220.167Z" fill="#E6BC89"/>
<path fill-rule="evenodd" clip-rule="evenodd" d="M108.632 0.760864L0.651367 47.6634V47.7781L110.476 94.9003L220.348 47.673L111.603 0.770416H108.642L108.632 0.760864Z" fill="#FFD4A0"/>
<path fill-rule="evenodd" clip-rule="evenodd" d="M144.351 14.9076L143.682 15.156L34.5933 62.326V128.572L53.9561 119.02L73.061 147.677L73.0419 78.8422L182.15 31.1754L144.351 14.9076Z" fill="#E9EDED"/>
</svg>
